<?xml version="1.0" encoding="UTF-8"?><svg id="Layer_2" xmlns="http://www.w3.org/2000/svg" width="403.05" height="384.47" viewBox="0 0 403.05 384.47"><defs><style>.cls-1{fill:#3a3229;}.cls-2{font-family:HiraKakuProN-W3-83pv-RKSJ-H, 'Hiragino Kaku Gothic ProN';font-size:57.58px;}.cls-2,.cls-3{fill:#323d2b;}.cls-3{font-family:MuseoModerno-Medium, MuseoModerno;font-size:22.44px;font-weight:500;letter-spacing:.8em;}</style></defs><g id="Layer_1-2"><text class="cls-2" transform="translate(0 330.67)"><tspan x="0" y="0">飄忽不定工作室</tspan></text><text class="cls-3" transform="translate(12.92 375.5)"><tspan x="0" y="0">Erratic Studio</tspan></text><path class="cls-1" d="M150.04,236.43c-9.21,0-44.07-.93-54.06-2.96C29.77,219.92,1.71,164.03,3.28,114.65,4.85,65.14,36.95,10.94,105.13,1.43c6.98-.97,38.06-1.43,44.92-1.43,2.97,0,5.38,2.41,5.38,5.38s-2.41,5.38-5.38,5.38c-8.71,0-37.63.52-43.43,1.33C44.65,20.73,15.47,70,14.04,115c-1.42,44.86,24.03,95.63,84.11,107.93,8.22,1.68,40.48,2.74,51.9,2.74,2.97,0,5.38,2.41,5.38,5.38s-2.41,5.38-5.38,5.38Z"/><path class="cls-1" d="M215.7,10.76h-65.65c-2.97,0-5.38-2.41-5.38-5.38s2.41-5.38,5.38-5.38h65.65c2.97,0,5.38,2.41,5.38,5.38s-2.41,5.38-5.38,5.38Z"/><path class="cls-1" d="M150.04,135.35c-2.97,0-5.38-2.41-5.38-5.38s2.41-5.38,5.38-5.38c9.02,0,46.61-.27,54.41-.76,3.03-.15,5.52,2.08,5.7,5.04.18,2.96-2.07,5.52-5.04,5.7-8.4.52-46.96.78-55.07.78Z"/><path class="cls-1" d="M150.04,135.35h-85.36c-2.97,0-5.38-2.41-5.38-5.38s2.41-5.38,5.38-5.38h85.36c2.97,0,5.38,2.41,5.38,5.38s-2.41,5.38-5.38,5.38Z"/><path class="cls-1" d="M191.76,240.72c-2.97,0-5.38-2.41-5.38-5.38V22.53c0-2.97,2.41-5.38,5.38-5.38s5.38,2.41,5.38,5.38v212.81c0,2.97-2.41,5.38-5.38,5.38Z"/><path class="cls-1" d="M352.96,240.72c-18.81,0-41.82-16.16-47.44-46.11-4.92-26.23-22.06-61.09-113.76-61.09-2.97,0-5.38-2.41-5.38-5.38s2.41-5.38,5.38-5.38c111.24,0,121.1,52.58,124.34,69.86,4.55,24.25,22.39,37.34,36.86,37.34s30.58-3.5,36.2-30.8c.6-2.91,3.45-4.79,6.36-4.18,2.91.6,4.79,3.45,4.19,6.36-5.46,26.5-20.75,39.39-46.74,39.39Z"/><path class="cls-1" d="M204.79,134.58c-2.97,0-5.38-2.41-5.38-5.38s2.41-5.38,5.38-5.38c72.86,0,114.65-20.43,114.65-56.04,0-8.18-2.74-23.89-21.08-37.13-18.02-13.01-46.59-19.88-82.59-19.88-3.19-.05-5.44-2.39-5.44-5.38s2.41-5.38,5.38-5.38h.06c38.83,0,68.73,7.37,88.89,21.92,22.23,16.04,25.55,35.61,25.55,45.86,0,60.29-87.7,66.81-125.41,66.81Z"/></g></svg>